<svg width="44" height="38" viewBox="0 0 44 38" fill="none" xmlns="http://www.w3.org/2000/svg">
  <g opacity="0.3">
    <ellipse cx="22" cy="19" rx="16" ry="16" fill="#6A0DAD"/>
    <ellipse cx="4" cy="4" rx="2.5" ry="2.5" fill="#6A0DAD"/>
  </g>
  <!-- Leher kantong -->
  <path d="M24 12C24.5 11 25.5 10 26.5 9.5C27.2 9.2 27 8 26 8H18C17 8 16.8 9.2 17.5 9.5C18.5 10 19.5 11 20 12" stroke="#6A0DAD" stroke-width="2" stroke-linecap="round"/>
  <!-- Kantong utama -->
  <path d="M18 12H26L25.5 14L26.5 15.5C28 18 28 21 26 23.5C24.5 25.5 23 26.5 22 26.5C21 26.5 19.5 25.5 18 23.5C16 21 16 18 17.5 15.5L18.5 14L18 12Z" stroke="#6A0DAD" stroke-width="2" stroke-linejoin="round"/>
  <!-- Simbol Dollar -->
  <path d="M22 17V25" stroke="#6A0DAD" stroke-width="1.5" stroke-linecap="round"/>
  <path d="M20.5 18.5C20.5 17.5 21.3 17 22.5 17C23.6 17 24.5 17.6 24.5 18.5C24.5 19.5 23.7 20 22.5 20C21.3 20 20.5 20.5 20.5 21.5C20.5 22.4 21.4 23 22.5 23C23.7 23 24.5 22.5 24.5 21.5" stroke="#6A0DAD" stroke-width="1.5" stroke-linecap="round"/>
</svg>
