<svg width="44" height="38" viewBox="0 0 44 38" fill="none" xmlns="http://www.w3.org/2000/svg">
  <g opacity="0.3">
    <ellipse cx="22" cy="19" rx="16" ry="16" fill="#6A0DAD"/>
    <ellipse cx="4" cy="4" rx="2.5" ry="2.5" fill="#6A0DAD"/>
  </g>
  <!-- PS2 style controller -->
  <path d="M14 20C13.5 17 16 15 18.5 15H25.5C28 15 30.5 17 30 20L29.5 23C29.2 24.8 27.7 26 26 26H18C16.3 26 14.8 24.8 14.5 23L14 20Z" stroke="#6A0DAD" stroke-width="2" stroke-linejoin="round" stroke-linecap="round"/>
  <path d="M17 20H19M18 19V21" stroke="#6A0DAD" stroke-width="2" stroke-linecap="round"/>
  <circle cx="24.5" cy="20" r="1" fill="#6A0DAD"/>
  <circle cx="27" cy="20" r="1" fill="#6A0DAD"/>
  <circle cx="25.75" cy="21.75" r="1" fill="#6A0DAD"/>
  <circle cx="25.75" cy="18.25" r="1" fill="#6A0DAD"/>
</svg>
